<svg width="50" height="50" viewBox="0 0 50 50" fill="none" xmlns="http://www.w3.org/2000/svg">
<path d="M25 48.4375C37.9442 48.4375 48.4375 37.9442 48.4375 25C48.4375 12.0558 37.9442 1.5625 25 1.5625C12.0558 1.5625 1.5625 12.0558 1.5625 25C1.5625 37.9442 12.0558 48.4375 25 48.4375Z" stroke="#A7A9BB" stroke-width="1.5" stroke-linecap="round" stroke-linejoin="round"/>
<path d="M25 32.8125C30.3934 32.8125 34.7656 28.4403 34.7656 23.0469C34.7656 17.6535 30.3934 13.2812 25 13.2812C19.6066 13.2812 15.2344 17.6535 15.2344 23.0469C15.2344 28.4403 19.6066 32.8125 25 32.8125Z" stroke="#A7A9BB" stroke-width="1.5" stroke-linecap="round" stroke-linejoin="round"/>
<path d="M9.32617 42.4317C10.7957 39.5372 13.038 37.1062 15.8045 35.408C18.5711 33.7099 21.7539 32.811 25 32.811C28.2461 32.811 31.4289 33.7099 34.1955 35.408C36.962 37.1062 39.2043 39.5372 40.6738 42.4317" stroke="#A7A9BB" stroke-width="1.5" stroke-linecap="round" stroke-linejoin="round"/>
</svg>
